<?xml version="1.0" encoding="utf-8"?>
<!-- Generator: Adobe Illustrator 26.5.0, SVG Export Plug-In . SVG Version: 6.00 Build 0)  -->
<svg version="1.1" id="Слой_1" xmlns="http://www.w3.org/2000/svg" xmlns:xlink="http://www.w3.org/1999/xlink" x="0px" y="0px"
	 viewBox="0 0 480.2 164.5" style="enable-background:new 0 0 480.2 164.5;" xml:space="preserve">
<style type="text/css">
	.st0{fill:none;}
	.st1{fill:#525252;}
	.st2{fill:#1D1D1B;}
	.st3{fill:#C6C6C6;}
	.st4{fill:#FFFFFF;}
	.st5{fill:#FDFDFC;}
	.st6{fill:url(#SVGID_1_);}
	.st7{fill:url(#SVGID_00000029729841507520348390000007672577632489189790_);}
	.st8{fill:#27284B;}
	.st9{fill:#574595;}
	.st10{fill:url(#SVGID_00000005952528109407704300000005590918331477474235_);}
	.st11{fill:url(#SVGID_00000129914098848823514480000000132619850977973915_);}
	.st12{fill:url(#SVGID_00000021110822637481282990000014006751429834257342_);}
	.st13{fill:#A41077;}
	.st14{fill:url(#SVGID_00000049906271981745853690000003684440003699871929_);}
	.st15{fill:url(#SVGID_00000098187449478064923280000003344112669718874787_);}
	.st16{fill:url(#SVGID_00000160892466260458511450000005592213872779626682_);}
	.st17{fill:url(#SVGID_00000132077784867644216510000007752612306031665828_);}
	.st18{fill:url(#SVGID_00000068636235983520642740000018182885332130613427_);}
	.st19{fill:url(#SVGID_00000020385596577091599890000001046190048295796110_);}
	.st20{fill:url(#SVGID_00000114761959896680900230000011335031503900065720_);}
	.st21{fill:url(#SVGID_00000029012809028062153030000003339867535665537705_);}
	.st22{fill:url(#SVGID_00000085219079916805256900000001820531645811095962_);}
	.st23{fill:url(#SVGID_00000178181598240404830370000016061725629940765062_);}
	.st24{fill:url(#SVGID_00000011027422698759042460000009644074283101420198_);}
	.st25{fill:url(#SVGID_00000029750281001940525080000011381096175889986976_);}
	.st26{fill:url(#SVGID_00000145759213951760250610000001056590699458205853_);}
	.st27{fill:url(#SVGID_00000124163163130081945230000003835895300578897844_);}
	.st28{fill:url(#SVGID_00000046329478754104071940000017581099523381211530_);}
	.st29{fill:url(#SVGID_00000107582798268833924590000018407080034574913933_);}
	.st30{fill:url(#SVGID_00000087412539392297815510000005587587720981655215_);}
	.st31{fill:url(#SVGID_00000088813476939123218490000007298202403335941021_);}
	.st32{fill:url(#SVGID_00000049923539102178335470000000347163652706854572_);}
	.st33{fill:url(#SVGID_00000055694311929459145290000010851991351703518349_);}
	.st34{fill:url(#SVGID_00000060710063866323369870000018405266187690244499_);}
	.st35{fill:url(#SVGID_00000089557584015561694610000001607551884438673082_);}
	.st36{fill:url(#SVGID_00000159448677673646809880000002752188596729499018_);}
	.st37{fill:url(#SVGID_00000144299376726788199740000005284781009536149932_);}
	.st38{fill:url(#SVGID_00000171687449915376312490000002070151241099875714_);}
	.st39{fill:url(#SVGID_00000183970394733876788010000018234769299480503971_);}
	.st40{fill:url(#SVGID_00000084501484734008863280000017016298139835178368_);}
	.st41{fill:url(#SVGID_00000119806966700105920060000005071728378228563888_);}
	.st42{fill:url(#SVGID_00000178204880768109081480000009454430417076592772_);}
	.st43{fill:url(#SVGID_00000064355678187742889730000005994279971874342838_);}
	.st44{fill:url(#SVGID_00000072967987912632150580000003326224880090113411_);}
	.st45{fill:url(#SVGID_00000176024990834227868400000004632291809600773273_);}
	.st46{fill:url(#SVGID_00000099664142228347782260000010799525550370593157_);}
	.st47{fill:url(#SVGID_00000150806804874153821000000010566637688507513741_);}
	.st48{fill:url(#SVGID_00000039099723981825508580000003841014920043437497_);}
	.st49{fill:url(#SVGID_00000041993201119050489990000011514599579010630313_);}
	.st50{opacity:0.55;}
	.st51{fill:#E95351;}
	.st52{fill:url(#SVGID_00000057856545192834882430000016231246289465726085_);}
	.st53{fill:url(#SVGID_00000070109679077541121320000006256897834412263101_);}
	.st54{fill:url(#SVGID_00000067225878649062159490000013942324178565311892_);}
	.st55{fill:url(#SVGID_00000047023141271580366530000012422768663556561043_);}
	.st56{fill:url(#SVGID_00000164474475864433166170000017523379939595549332_);}
	.st57{fill:url(#SVGID_00000074416461624390260440000012875713722050720954_);}
	.st58{fill:url(#SVGID_00000145771684305473497590000000701967329291965106_);}
	.st59{fill:url(#SVGID_00000128486663045114182800000006673542185703431587_);}
	.st60{fill:url(#SVGID_00000003095830846873174190000010352776445360526778_);}
	.st61{fill:url(#SVGID_00000046338485611723150870000002543896304028739995_);}
	.st62{fill:url(#SVGID_00000163044618916738802380000000486035187628330670_);}
	.st63{fill:url(#SVGID_00000163075012135175567350000013671989684028076943_);}
	.st64{fill:url(#SVGID_00000116916469993106088550000017017371939183236227_);}
	.st65{fill:url(#SVGID_00000044864456256308983110000003037833972724549507_);}
	.st66{fill:url(#SVGID_00000122722174419647556900000001779493191043103422_);}
	.st67{fill:url(#SVGID_00000029007698474731276850000016696863021621182087_);}
	.st68{fill:url(#SVGID_00000083767820167968300960000013006784301629844415_);}
	.st69{fill:url(#SVGID_00000152947477361115291560000015802853089399200141_);}
	.st70{fill:url(#SVGID_00000083793602864637421390000009659824585676766639_);}
	.st71{fill:url(#SVGID_00000127003832784105445770000008440613874269494417_);}
	.st72{fill:url(#SVGID_00000137094758353605202440000011987418538025443495_);}
	.st73{fill:url(#SVGID_00000141434063400525169470000008684904324529112984_);}
	.st74{fill:url(#SVGID_00000132810323597145378930000000784510205769303210_);}
	.st75{fill:url(#SVGID_00000052076773868452799210000016037336935412080527_);}
	.st76{fill:url(#SVGID_00000047023274660223891040000000536289991266121356_);}
	.st77{fill:url(#SVGID_00000111172160965319747870000008866775198367547323_);}
	.st78{fill:url(#SVGID_00000106110317794938325460000016549555451077524878_);}
	.st79{fill:url(#SVGID_00000083050192756147978530000013378656583044334255_);}
	.st80{fill:url(#SVGID_00000051384173956978199520000016025707505219885443_);}
	.st81{fill:url(#SVGID_00000180358101672551210230000004436353270815505047_);}
	.st82{fill:url(#SVGID_00000065764692904097874900000010647183502158301605_);}
	.st83{fill:url(#SVGID_00000004525986167404951010000014167847780009110931_);}
	.st84{fill:url(#SVGID_00000132810568831671923570000001677419359615742886_);}
	.st85{fill:url(#SVGID_00000056426593873737120780000000941595142097495980_);}
	.st86{fill:url(#SVGID_00000152243002427279196370000014823860179496259737_);}
	.st87{fill:url(#SVGID_00000109718811713662960620000003675795325655411866_);}
	.st88{fill:url(#SVGID_00000021091174543722227410000013181991634788545193_);}
	.st89{fill:url(#SVGID_00000173139901577505193000000017999339786013486250_);}
	.st90{fill:url(#SVGID_00000116943111817996351320000015371549115314151576_);}
	.st91{fill:url(#SVGID_00000130648208651980316860000005696025295190167430_);}
	.st92{fill:url(#SVGID_00000128486512222296699460000010162547679599726479_);}
	.st93{fill:url(#SVGID_00000111870738994358938170000006323959977154741175_);}
	.st94{fill:url(#SVGID_00000112610679023172000210000016566509903875907459_);}
	.st95{fill:url(#SVGID_00000181046463099399163330000016087636266497760395_);}
	.st96{fill:url(#SVGID_00000136394078393743567440000010179262542367416234_);}
	.st97{fill:url(#SVGID_00000101094995228981451200000013641468288691785607_);}
	.st98{fill:url(#SVGID_00000153672371940732022720000008276255638182810768_);}
	.st99{fill:url(#SVGID_00000049905771820403414190000006150282077675936644_);}
	.st100{fill:url(#SVGID_00000056423454358672948500000000809420547493712284_);}
	.st101{fill:url(#SVGID_00000005251409870665703520000005730005399063318202_);}
	.st102{fill:url(#SVGID_00000109730647257867820450000006111267531581464250_);}
	.st103{fill:url(#SVGID_00000058550922041779289220000006824287766446211768_);}
	.st104{fill:url(#SVGID_00000120549947276593267610000004109856826064143295_);}
	.st105{fill:url(#SVGID_00000106117748363207326150000004067414812616300475_);}
	.st106{fill:url(#SVGID_00000016044308343414304720000002779986907690253243_);}
	.st107{fill:url(#SVGID_00000103977171400732585170000000129134483798231464_);}
</style>
<g>
	<g>
		<path class="st8" d="M155.1,69.8c4,0,7.8,1.6,10.5,3.9l5-6.7c-4.1-3.5-9.5-5.7-15.5-5.7c-13.4,0-23.8,10.4-23.8,23.8
			c0,13.3,10.4,23.8,23.8,23.8c6.1,0,11.5-2.2,15.5-5.7l-4.9-6.8c-3.4,2.7-6.6,4-10.6,4c-8,0-14.8-6.6-14.8-15.3
			C140.3,76.5,147.1,69.8,155.1,69.8z"/>
		<path class="st8" d="M155.1,69.8c4,0,7.8,1.6,10.5,3.9l5-6.7c-4.1-3.5-9.5-5.7-15.5-5.7c-13.4,0-23.8,10.4-23.8,23.8
			c0,13.3,10.4,23.8,23.8,23.8c6.1,0,11.5-2.2,15.5-5.7l-4.9-6.8c-3.4,2.7-6.6,4-10.6,4c-8,0-14.8-6.6-14.8-15.3
			C140.3,76.5,147.1,69.8,155.1,69.8z"/>
		<path class="st8" d="M155.1,69.8c4,0,7.8,1.6,10.5,3.9l5-6.7c-4.1-3.5-9.5-5.7-15.5-5.7c-13.4,0-23.8,10.4-23.8,23.8
			c0,13.3,10.4,23.8,23.8,23.8c6.1,0,11.5-2.2,15.5-5.7l-4.9-6.8c-3.4,2.7-6.6,4-10.6,4c-8,0-14.8-6.6-14.8-15.3
			C140.3,76.5,147.1,69.8,155.1,69.8z"/>
		<rect x="178.4" y="73.8" class="st8" width="8.3" height="34.3"/>
		<rect x="178.4" y="73.8" class="st8" width="8.3" height="34.3"/>
		<rect x="178.4" y="73.8" class="st8" width="8.3" height="34.3"/>
		<path class="st8" d="M182.6,58c-3.1,0-5.2,2.5-5.2,5c0,2.5,2.1,5,5.2,5c3.1,0,5.2-2.4,5.2-5C187.8,60.5,185.7,58,182.6,58z"/>
		<path class="st8" d="M182.6,58c-3.1,0-5.2,2.5-5.2,5c0,2.5,2.1,5,5.2,5c3.1,0,5.2-2.4,5.2-5C187.8,60.5,185.7,58,182.6,58z"/>
		<path class="st8" d="M182.6,58c-3.1,0-5.2,2.5-5.2,5c0,2.5,2.1,5,5.2,5c3.1,0,5.2-2.4,5.2-5C187.8,60.5,185.7,58,182.6,58z"/>
		<polygon class="st8" points="211.1,98.7 202.3,73.8 193.1,73.8 207,108.1 215.2,108.1 229.2,73.8 220,73.8 		"/>
		<polygon class="st8" points="211.1,98.7 202.3,73.8 193.1,73.8 207,108.1 215.2,108.1 229.2,73.8 220,73.8 		"/>
		<polygon class="st8" points="211.1,98.7 202.3,73.8 193.1,73.8 207,108.1 215.2,108.1 229.2,73.8 220,73.8 		"/>
		<path class="st8" d="M239.8,58c-3.1,0-5.2,2.5-5.2,5c0,2.5,2.1,5,5.2,5c3.1,0,5.2-2.4,5.2-5C245,60.5,242.9,58,239.8,58z"/>
		<path class="st8" d="M239.8,58c-3.1,0-5.2,2.5-5.2,5c0,2.5,2.1,5,5.2,5c3.1,0,5.2-2.4,5.2-5C245,60.5,242.9,58,239.8,58z"/>
		<path class="st8" d="M239.8,58c-3.1,0-5.2,2.5-5.2,5c0,2.5,2.1,5,5.2,5c3.1,0,5.2-2.4,5.2-5C245,60.5,242.9,58,239.8,58z"/>
		<rect x="235.6" y="73.8" class="st8" width="8.3" height="34.3"/>
		<rect x="235.6" y="73.8" class="st8" width="8.3" height="34.3"/>
		<rect x="235.6" y="73.8" class="st8" width="8.3" height="34.3"/>
		<path class="st8" d="M270.5,80.7c3.2,0,5.7,1.2,7.9,3.1l4.2-6c-3.1-2.8-7.4-4.7-12.5-4.7c-10.2,0-17.9,8.1-17.9,18
			c0,9.8,7.6,18,17.9,18c5,0,9.4-1.9,12.5-4.7l-4.2-6c-2.2,1.8-4.6,3-7.9,3c-5.4,0-10-4.4-10-10.3C260.5,85.1,265.1,80.7,270.5,80.7
			z"/>
		<path class="st8" d="M270.5,80.7c3.2,0,5.7,1.2,7.9,3.1l4.2-6c-3.1-2.8-7.4-4.7-12.5-4.7c-10.2,0-17.9,8.1-17.9,18
			c0,9.8,7.6,18,17.9,18c5,0,9.4-1.9,12.5-4.7l-4.2-6c-2.2,1.8-4.6,3-7.9,3c-5.4,0-10-4.4-10-10.3C260.5,85.1,265.1,80.7,270.5,80.7
			z"/>
		<path class="st8" d="M270.5,80.7c3.2,0,5.7,1.2,7.9,3.1l4.2-6c-3.1-2.8-7.4-4.7-12.5-4.7c-10.2,0-17.9,8.1-17.9,18
			c0,9.8,7.6,18,17.9,18c5,0,9.4-1.9,12.5-4.7l-4.2-6c-2.2,1.8-4.6,3-7.9,3c-5.4,0-10-4.4-10-10.3C260.5,85.1,265.1,80.7,270.5,80.7
			z"/>
		<path class="st8" d="M308,73.1c-4.3,0-7.6,1.7-10,4.2V59.9h-8.4v48.3h7.3l0.6-4c2.5,2.9,6,4.8,10.5,4.8c9.5,0,17.2-8,17.2-17.9
			C325.3,81,317.5,73.1,308,73.1z M307.3,101c-5.5,0-9.8-4.2-9.8-10c0-5.8,4.4-10.1,9.8-10.1c5.4,0,9.7,4.3,9.7,10.1
			C317,96.9,312.8,101,307.3,101z"/>
		<path class="st8" d="M308,73.1c-4.3,0-7.6,1.7-10,4.2V59.9h-8.4v48.3h7.3l0.6-4c2.5,2.9,6,4.8,10.5,4.8c9.5,0,17.2-8,17.2-17.9
			C325.3,81,317.5,73.1,308,73.1z M307.3,101c-5.5,0-9.8-4.2-9.8-10c0-5.8,4.4-10.1,9.8-10.1c5.4,0,9.7,4.3,9.7,10.1
			C317,96.9,312.8,101,307.3,101z"/>
		<path class="st8" d="M308,73.1c-4.3,0-7.6,1.7-10,4.2V59.9h-8.4v48.3h7.3l0.6-4c2.5,2.9,6,4.8,10.5,4.8c9.5,0,17.2-8,17.2-17.9
			C325.3,81,317.5,73.1,308,73.1z M307.3,101c-5.5,0-9.8-4.2-9.8-10c0-5.8,4.4-10.1,9.8-10.1c5.4,0,9.7,4.3,9.7,10.1
			C317,96.9,312.8,101,307.3,101z"/>
		<path class="st8" d="M359.3,78c-2.5-2.9-6-4.9-10.6-4.9c-9.4,0-17.2,8-17.2,17.9c0,10,7.8,17.9,17.2,17.9c4.5,0,8-2,10.5-4.8
			l0.6,4h7.3V73.8h-7.3L359.3,78z M349.3,101c-5.5,0-9.7-4.2-9.7-10c0-5.8,4.3-10.1,9.7-10.1c5.5,0,9.8,4.3,9.8,10.1
			C359.2,96.9,354.8,101,349.3,101z"/>
		<path class="st8" d="M359.3,78c-2.5-2.9-6-4.9-10.6-4.9c-9.4,0-17.2,8-17.2,17.9c0,10,7.8,17.9,17.2,17.9c4.5,0,8-2,10.5-4.8
			l0.6,4h7.3V73.8h-7.3L359.3,78z M349.3,101c-5.5,0-9.7-4.2-9.7-10c0-5.8,4.3-10.1,9.7-10.1c5.5,0,9.8,4.3,9.8,10.1
			C359.2,96.9,354.8,101,349.3,101z"/>
		<path class="st8" d="M359.3,78c-2.5-2.9-6-4.9-10.6-4.9c-9.4,0-17.2,8-17.2,17.9c0,10,7.8,17.9,17.2,17.9c4.5,0,8-2,10.5-4.8
			l0.6,4h7.3V73.8h-7.3L359.3,78z M349.3,101c-5.5,0-9.7-4.2-9.7-10c0-5.8,4.3-10.1,9.7-10.1c5.5,0,9.8,4.3,9.8,10.1
			C359.2,96.9,354.8,101,349.3,101z"/>
		<path class="st8" d="M391.2,87.6c-5.4-1.4-7-2.4-7-4.3c0-1.8,1.6-2.9,5-2.9c3.1,0,6.9,1.4,9.2,2.9l4-6c-3.7-2.7-8.6-4.3-12.9-4.3
			c-8.8,0-13.7,4.6-13.7,10.2c0,5.8,5,9,11.2,10.5c5.6,1.4,7.7,2.5,7.7,4.6c0,2.2-2.2,3.4-5.4,3.4c-4.1,0-8.4-1.8-11.2-3.8l-4,5.9
			c4,3.1,9.2,5.2,15.4,5.2c8.1,0,13.6-4.5,13.6-10.7C403.1,92,398.1,89.3,391.2,87.6z"/>
		<path class="st8" d="M391.2,87.6c-5.4-1.4-7-2.4-7-4.3c0-1.8,1.6-2.9,5-2.9c3.1,0,6.9,1.4,9.2,2.9l4-6c-3.7-2.7-8.6-4.3-12.9-4.3
			c-8.8,0-13.7,4.6-13.7,10.2c0,5.8,5,9,11.2,10.5c5.6,1.4,7.7,2.5,7.7,4.6c0,2.2-2.2,3.4-5.4,3.4c-4.1,0-8.4-1.8-11.2-3.8l-4,5.9
			c4,3.1,9.2,5.2,15.4,5.2c8.1,0,13.6-4.5,13.6-10.7C403.1,92,398.1,89.3,391.2,87.6z"/>
		<path class="st8" d="M391.2,87.6c-5.4-1.4-7-2.4-7-4.3c0-1.8,1.6-2.9,5-2.9c3.1,0,6.9,1.4,9.2,2.9l4-6c-3.7-2.7-8.6-4.3-12.9-4.3
			c-8.8,0-13.7,4.6-13.7,10.2c0,5.8,5,9,11.2,10.5c5.6,1.4,7.7,2.5,7.7,4.6c0,2.2-2.2,3.4-5.4,3.4c-4.1,0-8.4-1.8-11.2-3.8l-4,5.9
			c4,3.1,9.2,5.2,15.4,5.2c8.1,0,13.6-4.5,13.6-10.7C403.1,92,398.1,89.3,391.2,87.6z"/>
		<path class="st8" d="M424.9,73.1c-9.8,0-16.8,8-16.8,18c0,9.8,7.5,17.9,17.7,17.9c5.2,0,9.5-1.8,12.6-4.7l-4-5.8
			c-2.1,1.9-4.8,3.1-8.1,3.1c-4.8,0-8.8-2.9-9.9-7.9h25.3c0.2-1.1,0.2-2,0.2-2.9C441.8,80.6,435.7,73.1,424.9,73.1z M416.4,87.4
			c1.1-4.5,4.5-7.1,8.8-7.1c4.5,0,7.5,2.6,8.5,7.1H416.4z"/>
		<path class="st8" d="M424.9,73.1c-9.8,0-16.8,8-16.8,18c0,9.8,7.5,17.9,17.7,17.9c5.2,0,9.5-1.8,12.6-4.7l-4-5.8
			c-2.1,1.9-4.8,3.1-8.1,3.1c-4.8,0-8.8-2.9-9.9-7.9h25.3c0.2-1.1,0.2-2,0.2-2.9C441.8,80.6,435.7,73.1,424.9,73.1z M416.4,87.4
			c1.1-4.5,4.5-7.1,8.8-7.1c4.5,0,7.5,2.6,8.5,7.1H416.4z"/>
		<path class="st8" d="M424.9,73.1c-9.8,0-16.8,8-16.8,18c0,9.8,7.5,17.9,17.7,17.9c5.2,0,9.5-1.8,12.6-4.7l-4-5.8
			c-2.1,1.9-4.8,3.1-8.1,3.1c-4.8,0-8.8-2.9-9.9-7.9h25.3c0.2-1.1,0.2-2,0.2-2.9C441.8,80.6,435.7,73.1,424.9,73.1z M416.4,87.4
			c1.1-4.5,4.5-7.1,8.8-7.1c4.5,0,7.5,2.6,8.5,7.1H416.4z"/>
	</g>
	<g>
		<path class="st8" d="M92.5,87.8c0-9.3,0-18.6,0-27.9c0-2.2,0.1-4.3,0-6.5c-0.1-3.7-3.1-6.4-6.7-6.2c-0.8,0-1.7,0.3-2.5,0.6
			c-11.9,4.1-23.8,8.2-35.7,12.3c-5.9,2-9.1,6.5-9.1,12.8c0,5.5,0,10.9,0,16.4c0,5.8,0,11.7,0,17.5c0,3.1,1.8,5.5,4.6,6.3
			c1.5,0.4,3,0.3,4.5-0.2c12.1-4.2,24.1-8.3,36.2-12.5C89.3,98.3,92.5,93.9,92.5,87.8z"/>
		<path class="st8" d="M92.5,87.8c0-9.3,0-18.6,0-27.9c0-2.2,0.1-4.3,0-6.5c-0.1-3.7-3.1-6.4-6.7-6.2c-0.8,0-1.7,0.3-2.5,0.6
			c-11.9,4.1-23.8,8.2-35.7,12.3c-5.9,2-9.1,6.5-9.1,12.8c0,5.5,0,10.9,0,16.4c0,5.8,0,11.7,0,17.5c0,3.1,1.8,5.5,4.6,6.3
			c1.5,0.4,3,0.3,4.5-0.2c12.1-4.2,24.1-8.3,36.2-12.5C89.3,98.3,92.5,93.9,92.5,87.8z"/>
		<path class="st8" d="M100.4,60.9c-0.7,0-1.5,0.2-2.2,0.5c-0.8,0.3-1.5,0.5-2.3,0.8v5.5c0,6.7,0,13.4,0,20.1
			c0,7.6-4.1,13.4-11.2,15.9c-7.4,2.6-15,5.2-22.3,7.7c-0.8,0.3-1.6,0.6-2.4,0.8c0.2,2.5,1.6,4.3,3.9,5c1.3,0.4,2.6,0.2,3.8-0.2
			c10.3-3.6,20.6-7.1,30.9-10.7c4.9-1.7,7.6-5.5,7.6-10.7c0-7.9,0-15.9,0-23.8c0-1.8,0-3.7,0-5.5C106.1,63,103.5,60.7,100.4,60.9z"
			/>
	</g>
</g>
</svg>
