<?xml version="1.0" encoding="utf-8"?>
<!-- Generator: Adobe Illustrator 26.5.0, SVG Export Plug-In . SVG Version: 6.00 Build 0)  -->
<svg version="1.1" id="Слой_1" xmlns="http://www.w3.org/2000/svg" xmlns:xlink="http://www.w3.org/1999/xlink" x="0px" y="0px"
	 viewBox="0 0 480.2 164.5" style="enable-background:new 0 0 480.2 164.5;" xml:space="preserve">
<style type="text/css">
	.st0{fill:none;}
	.st1{fill:#525252;}
	.st2{fill:#1D1D1B;}
	.st3{fill:#C6C6C6;}
	.st4{fill:#FFFFFF;}
	.st5{fill:#FDFDFC;}
	.st6{fill:url(#SVGID_1_);}
	.st7{fill:url(#SVGID_00000042712781910807471130000013388542430261791411_);}
	.st8{fill:#27284B;}
	.st9{fill:#574595;}
	.st10{fill:url(#SVGID_00000122678886974757638580000001556806297001916062_);}
	.st11{fill:url(#SVGID_00000071528056333429507510000001557301026845993359_);}
	.st12{fill:url(#SVGID_00000004542785003523834900000012861699375617312162_);}
	.st13{fill:#A41077;}
	.st14{fill:url(#SVGID_00000152250570333887942530000012018758369153393596_);}
	.st15{fill:url(#SVGID_00000067194563476245611080000012749002876243476108_);}
	.st16{fill:url(#SVGID_00000016043947406949099360000011132781415996566187_);}
	.st17{fill:url(#SVGID_00000177485375907409687060000005645606952550679231_);}
	.st18{fill:url(#SVGID_00000063630624348674840590000009834189762090537119_);}
	.st19{fill:url(#SVGID_00000030448065164351707800000008616616002435831194_);}
	.st20{fill:url(#SVGID_00000009548422865744346640000004959621602937203898_);}
	.st21{fill:url(#SVGID_00000070096902109816247370000003061721402541199280_);}
	.st22{fill:url(#SVGID_00000178895485833282759260000006669941184518605982_);}
	.st23{fill:url(#SVGID_00000024705627847386772300000004237675755241650089_);}
	.st24{fill:url(#SVGID_00000096775809377418814370000004203380344108819338_);}
	.st25{fill:url(#SVGID_00000129207021625783624230000018410752159346369672_);}
	.st26{fill:url(#SVGID_00000178187241334794640740000000703630712036231299_);}
	.st27{fill:url(#SVGID_00000024722680540325375990000005116652492633494718_);}
	.st28{fill:url(#SVGID_00000101095794181201155340000008117027868112592280_);}
	.st29{fill:url(#SVGID_00000043429398198808080300000018444027459706890638_);}
	.st30{fill:url(#SVGID_00000071550213133368855000000001812314877390034311_);}
	.st31{fill:url(#SVGID_00000068672673359241537430000000235666226668514745_);}
	.st32{fill:url(#SVGID_00000083770648108454406910000003540875521113758387_);}
	.st33{fill:url(#SVGID_00000023281933228917029190000009625650844327100563_);}
	.st34{fill:url(#SVGID_00000083053387030597856520000001137199633135328397_);}
	.st35{fill:url(#SVGID_00000023985272393654052310000004936924481009678771_);}
	.st36{fill:url(#SVGID_00000090983617850815764660000016519141847252065450_);}
	.st37{fill:url(#SVGID_00000021102358003706023260000009958711688073351809_);}
	.st38{fill:url(#SVGID_00000121264227151669769910000010689704972811398052_);}
	.st39{fill:url(#SVGID_00000160910433729197044610000010165210374792582037_);}
	.st40{fill:url(#SVGID_00000150078117009568462620000017024538073763552906_);}
	.st41{fill:url(#SVGID_00000144325682389978464480000010413131767400337056_);}
	.st42{fill:url(#SVGID_00000098916429473219801160000007623012480975026049_);}
	.st43{fill:url(#SVGID_00000005978755292907662040000000563013501068081326_);}
	.st44{fill:url(#SVGID_00000042005501821164948530000016616154550682031490_);}
	.st45{fill:url(#SVGID_00000062171940895375690880000008057954773716362393_);}
	.st46{fill:url(#SVGID_00000146497899581934789030000004836961845158432686_);}
	.st47{fill:url(#SVGID_00000042732496300208370170000005469252701447347632_);}
	.st48{fill:url(#SVGID_00000088111549329831244680000008499406942616403879_);}
	.st49{fill:url(#SVGID_00000155861636285674619250000017846661033526408595_);}
	.st50{opacity:0.55;}
	.st51{fill:#E95351;}
	.st52{fill:url(#SVGID_00000006678096123480720510000012412550874232313218_);}
	.st53{fill:url(#SVGID_00000071523328559520889810000014000507463942669705_);}
	.st54{fill:url(#SVGID_00000151515892581999531250000000012835774354086845_);}
	.st55{fill:url(#SVGID_00000077285831946351132550000002008204672417217194_);}
	.st56{fill:url(#SVGID_00000036970088277033891220000005326299036513766576_);}
	.st57{fill:url(#SVGID_00000145021208748582674950000010480269898844489610_);}
	.st58{fill:url(#SVGID_00000160190486497940403160000014790827321202469525_);}
	.st59{fill:url(#SVGID_00000123421918561070146800000017254932480269233062_);}
	.st60{fill:url(#SVGID_00000078724282795457225870000000292175338432444062_);}
	.st61{fill:url(#SVGID_00000106130488366650982850000002722681641880464801_);}
	.st62{fill:url(#SVGID_00000073001152255096244280000016598508124328375480_);}
	.st63{fill:url(#SVGID_00000113337824445906116250000007467410652057049218_);}
	.st64{fill:url(#SVGID_00000134940177756314717250000012840906831486060938_);}
	.st65{fill:url(#SVGID_00000114052340428467366320000008046401127679657127_);}
	.st66{fill:url(#SVGID_00000076592748727350459460000013751227243297895857_);}
	.st67{fill:url(#SVGID_00000111166549317208423110000009461951055794061698_);}
	.st68{fill:url(#SVGID_00000081639075936337128200000000763938058843151757_);}
	.st69{fill:url(#SVGID_00000001660834631656303050000012215493759449131673_);}
	.st70{fill:url(#SVGID_00000096027123469332687240000014108404176869444743_);}
	.st71{fill:url(#SVGID_00000147939104184198544500000006358547467917026454_);}
	.st72{fill:url(#SVGID_00000183247260432204882810000007107333522779933825_);}
	.st73{fill:url(#SVGID_00000057144208246742230180000015454206381598328469_);}
	.st74{fill:url(#SVGID_00000107551068848347259220000010110654459346029707_);}
	.st75{fill:url(#SVGID_00000047061725374553406200000007845933603580034216_);}
	.st76{fill:url(#SVGID_00000072984417316269379020000003885276954134590364_);}
	.st77{fill:url(#SVGID_00000036963841575391384220000013140787047132276910_);}
	.st78{fill:url(#SVGID_00000153684721689634036920000016270474052726335904_);}
	.st79{fill:url(#SVGID_00000008850519455856821990000013941786990685274293_);}
	.st80{fill:url(#SVGID_00000057121218441199323970000010549111347725068680_);}
	.st81{fill:url(#SVGID_00000003798066022157212840000007583890444597056446_);}
	.st82{fill:url(#SVGID_00000160161045527998218200000006607416216462955667_);}
	.st83{fill:url(#SVGID_00000149343323419931123490000015677026506317453501_);}
	.st84{fill:url(#SVGID_00000131347545658083577390000014167772107524780471_);}
	.st85{fill:url(#SVGID_00000164473302588590306810000002205825590797699767_);}
	.st86{fill:url(#SVGID_00000124862020939733916760000002254264554677041831_);}
	.st87{fill:url(#SVGID_00000149383199022299518670000011682789303305939108_);}
	.st88{fill:url(#SVGID_00000000931865666954055890000008818054290584734624_);}
	.st89{fill:url(#SVGID_00000168107929264303233120000004000176450208177816_);}
	.st90{fill:url(#SVGID_00000019645367485362000940000012727933017104506302_);}
	.st91{fill:url(#SVGID_00000114054055789920709310000017125104101172685477_);}
	.st92{fill:url(#SVGID_00000142869380646828482370000010268753154832064908_);}
	.st93{fill:url(#SVGID_00000012446792234318812980000016113933369405565849_);}
	.st94{fill:url(#SVGID_00000037677369175072611040000008921129557646012288_);}
	.st95{fill:url(#SVGID_00000163775955268729582890000011280294532179311002_);}
	.st96{fill:url(#SVGID_00000031891964535578120120000009296373417682470273_);}
	.st97{fill:url(#SVGID_00000131333886030709883780000005864998373378466204_);}
	.st98{fill:url(#SVGID_00000150080441727600390100000006997449099961559229_);}
	.st99{fill:url(#SVGID_00000170240677731773522880000005660451037846183846_);}
	.st100{fill:url(#SVGID_00000088132310275033815200000000949810366744132794_);}
	.st101{fill:url(#SVGID_00000123403163103439646390000009700302909435810495_);}
	.st102{fill:url(#SVGID_00000025410029971486312000000012995987688928076954_);}
	.st103{fill:url(#SVGID_00000107547700878377999270000013013262291050290877_);}
	.st104{fill:url(#SVGID_00000022545812498725809020000000917238106853200523_);}
	.st105{fill:url(#SVGID_00000026856033178276309640000009878875172727199110_);}
	.st106{fill:url(#SVGID_00000065777926816872464530000004556977197467004295_);}
	.st107{fill:url(#SVGID_00000143606821485441726040000007089841973940291728_);}
</style>
<g>
	<g>
		<g>
			<path class="st4" d="M155.1,69.8c4,0,7.8,1.6,10.5,3.9l5-6.7c-4.1-3.5-9.5-5.7-15.5-5.7c-13.4,0-23.8,10.4-23.8,23.8
				c0,13.3,10.4,23.8,23.8,23.8c6.1,0,11.5-2.2,15.5-5.7l-4.9-6.8c-3.4,2.7-6.6,4-10.6,4c-8,0-14.8-6.6-14.8-15.3
				C140.3,76.5,147.1,69.8,155.1,69.8z"/>
			<path class="st4" d="M155.1,69.8c4,0,7.8,1.6,10.5,3.9l5-6.7c-4.1-3.5-9.5-5.7-15.5-5.7c-13.4,0-23.8,10.4-23.8,23.8
				c0,13.3,10.4,23.8,23.8,23.8c6.1,0,11.5-2.2,15.5-5.7l-4.9-6.8c-3.4,2.7-6.6,4-10.6,4c-8,0-14.8-6.6-14.8-15.3
				C140.3,76.5,147.1,69.8,155.1,69.8z"/>
			<path class="st4" d="M155.1,69.8c4,0,7.8,1.6,10.5,3.9l5-6.7c-4.1-3.5-9.5-5.7-15.5-5.7c-13.4,0-23.8,10.4-23.8,23.8
				c0,13.3,10.4,23.8,23.8,23.8c6.1,0,11.5-2.2,15.5-5.7l-4.9-6.8c-3.4,2.7-6.6,4-10.6,4c-8,0-14.8-6.6-14.8-15.3
				C140.3,76.5,147.1,69.8,155.1,69.8z"/>
			<rect x="178.4" y="73.8" class="st4" width="8.3" height="34.3"/>
			<rect x="178.4" y="73.8" class="st4" width="8.3" height="34.3"/>
			<rect x="178.4" y="73.8" class="st4" width="8.3" height="34.3"/>
			<path class="st4" d="M182.6,58c-3.1,0-5.2,2.5-5.2,5c0,2.5,2.1,5,5.2,5c3.1,0,5.2-2.4,5.2-5C187.8,60.5,185.7,58,182.6,58z"/>
			<path class="st4" d="M182.6,58c-3.1,0-5.2,2.5-5.2,5c0,2.5,2.1,5,5.2,5c3.1,0,5.2-2.4,5.2-5C187.8,60.5,185.7,58,182.6,58z"/>
			<path class="st4" d="M182.6,58c-3.1,0-5.2,2.5-5.2,5c0,2.5,2.1,5,5.2,5c3.1,0,5.2-2.4,5.2-5C187.8,60.5,185.7,58,182.6,58z"/>
			<polygon class="st4" points="211.1,98.7 202.3,73.8 193.1,73.8 207,108.1 215.2,108.1 229.2,73.8 220,73.8 			"/>
			<polygon class="st4" points="211.1,98.7 202.3,73.8 193.1,73.8 207,108.1 215.2,108.1 229.2,73.8 220,73.8 			"/>
			<polygon class="st4" points="211.1,98.7 202.3,73.8 193.1,73.8 207,108.1 215.2,108.1 229.2,73.8 220,73.8 			"/>
			<path class="st4" d="M239.8,58c-3.1,0-5.2,2.5-5.2,5c0,2.5,2.1,5,5.2,5c3.1,0,5.2-2.4,5.2-5C245,60.5,242.9,58,239.8,58z"/>
			<path class="st4" d="M239.8,58c-3.1,0-5.2,2.5-5.2,5c0,2.5,2.1,5,5.2,5c3.1,0,5.2-2.4,5.2-5C245,60.5,242.9,58,239.8,58z"/>
			<path class="st4" d="M239.8,58c-3.1,0-5.2,2.5-5.2,5c0,2.5,2.1,5,5.2,5c3.1,0,5.2-2.4,5.2-5C245,60.5,242.9,58,239.8,58z"/>
			<rect x="235.6" y="73.8" class="st4" width="8.3" height="34.3"/>
			<rect x="235.6" y="73.8" class="st4" width="8.3" height="34.3"/>
			<rect x="235.6" y="73.8" class="st4" width="8.3" height="34.3"/>
			<path class="st4" d="M270.5,80.7c3.2,0,5.7,1.2,7.9,3.1l4.2-6c-3.1-2.8-7.4-4.7-12.5-4.7c-10.2,0-17.9,8.1-17.9,18
				c0,9.8,7.6,18,17.9,18c5,0,9.4-1.9,12.5-4.7l-4.2-6c-2.2,1.8-4.6,3-7.9,3c-5.4,0-10-4.4-10-10.3
				C260.5,85.1,265.1,80.7,270.5,80.7z"/>
			<path class="st4" d="M270.5,80.7c3.2,0,5.7,1.2,7.9,3.1l4.2-6c-3.1-2.8-7.4-4.7-12.5-4.7c-10.2,0-17.9,8.1-17.9,18
				c0,9.8,7.6,18,17.9,18c5,0,9.4-1.9,12.5-4.7l-4.2-6c-2.2,1.8-4.6,3-7.9,3c-5.4,0-10-4.4-10-10.3
				C260.5,85.1,265.1,80.7,270.5,80.7z"/>
			<path class="st4" d="M270.5,80.7c3.2,0,5.7,1.2,7.9,3.1l4.2-6c-3.1-2.8-7.4-4.7-12.5-4.7c-10.2,0-17.9,8.1-17.9,18
				c0,9.8,7.6,18,17.9,18c5,0,9.4-1.9,12.5-4.7l-4.2-6c-2.2,1.8-4.6,3-7.9,3c-5.4,0-10-4.4-10-10.3
				C260.5,85.1,265.1,80.7,270.5,80.7z"/>
			<path class="st4" d="M308,73.1c-4.3,0-7.6,1.7-10,4.2V59.9h-8.4v48.3h7.3l0.6-4c2.5,2.9,6,4.8,10.5,4.8c9.5,0,17.2-8,17.2-17.9
				C325.3,81,317.5,73.1,308,73.1z M307.3,101c-5.5,0-9.8-4.2-9.8-10c0-5.8,4.4-10.1,9.8-10.1c5.4,0,9.7,4.3,9.7,10.1
				C317,96.9,312.8,101,307.3,101z"/>
			<path class="st4" d="M308,73.1c-4.3,0-7.6,1.7-10,4.2V59.9h-8.4v48.3h7.3l0.6-4c2.5,2.9,6,4.8,10.5,4.8c9.5,0,17.2-8,17.2-17.9
				C325.3,81,317.5,73.1,308,73.1z M307.3,101c-5.5,0-9.8-4.2-9.8-10c0-5.8,4.4-10.1,9.8-10.1c5.4,0,9.7,4.3,9.7,10.1
				C317,96.9,312.8,101,307.3,101z"/>
			<path class="st4" d="M308,73.1c-4.3,0-7.6,1.7-10,4.2V59.9h-8.4v48.3h7.3l0.6-4c2.5,2.9,6,4.8,10.5,4.8c9.5,0,17.2-8,17.2-17.9
				C325.3,81,317.5,73.1,308,73.1z M307.3,101c-5.5,0-9.8-4.2-9.8-10c0-5.8,4.4-10.1,9.8-10.1c5.4,0,9.7,4.3,9.7,10.1
				C317,96.9,312.8,101,307.3,101z"/>
			<path class="st4" d="M359.3,78c-2.5-2.9-6-4.9-10.6-4.9c-9.4,0-17.2,8-17.2,17.9c0,10,7.8,17.9,17.2,17.9c4.5,0,8-2,10.5-4.8
				l0.6,4h7.3V73.8h-7.3L359.3,78z M349.3,101c-5.5,0-9.7-4.2-9.7-10c0-5.8,4.3-10.1,9.7-10.1c5.5,0,9.8,4.3,9.8,10.1
				C359.2,96.9,354.8,101,349.3,101z"/>
			<path class="st4" d="M359.3,78c-2.5-2.9-6-4.9-10.6-4.9c-9.4,0-17.2,8-17.2,17.9c0,10,7.8,17.9,17.2,17.9c4.5,0,8-2,10.5-4.8
				l0.6,4h7.3V73.8h-7.3L359.3,78z M349.3,101c-5.5,0-9.7-4.2-9.7-10c0-5.8,4.3-10.1,9.7-10.1c5.5,0,9.8,4.3,9.8,10.1
				C359.2,96.9,354.8,101,349.3,101z"/>
			<path class="st4" d="M359.3,78c-2.5-2.9-6-4.9-10.6-4.9c-9.4,0-17.2,8-17.2,17.9c0,10,7.8,17.9,17.2,17.9c4.5,0,8-2,10.5-4.8
				l0.6,4h7.3V73.8h-7.3L359.3,78z M349.3,101c-5.5,0-9.7-4.2-9.7-10c0-5.8,4.3-10.1,9.7-10.1c5.5,0,9.8,4.3,9.8,10.1
				C359.2,96.9,354.8,101,349.3,101z"/>
			<path class="st4" d="M391.2,87.6c-5.4-1.4-7-2.4-7-4.3c0-1.8,1.6-2.9,5-2.9c3.1,0,6.9,1.4,9.2,2.9l4-6c-3.7-2.7-8.6-4.3-12.9-4.3
				c-8.8,0-13.7,4.6-13.7,10.2c0,5.8,5,9,11.2,10.5c5.6,1.4,7.7,2.5,7.7,4.6c0,2.2-2.2,3.4-5.4,3.4c-4.1,0-8.4-1.8-11.2-3.8l-4,5.9
				c4,3.1,9.2,5.2,15.4,5.2c8.1,0,13.6-4.5,13.6-10.7C403.1,92,398.1,89.3,391.2,87.6z"/>
			<path class="st4" d="M391.2,87.6c-5.4-1.4-7-2.4-7-4.3c0-1.8,1.6-2.9,5-2.9c3.1,0,6.9,1.4,9.2,2.9l4-6c-3.7-2.7-8.6-4.3-12.9-4.3
				c-8.8,0-13.7,4.6-13.7,10.2c0,5.8,5,9,11.2,10.5c5.6,1.4,7.7,2.5,7.7,4.6c0,2.2-2.2,3.4-5.4,3.4c-4.1,0-8.4-1.8-11.2-3.8l-4,5.9
				c4,3.1,9.2,5.2,15.4,5.2c8.1,0,13.6-4.5,13.6-10.7C403.1,92,398.1,89.3,391.2,87.6z"/>
			<path class="st4" d="M391.2,87.6c-5.4-1.4-7-2.4-7-4.3c0-1.8,1.6-2.9,5-2.9c3.1,0,6.9,1.4,9.2,2.9l4-6c-3.7-2.7-8.6-4.3-12.9-4.3
				c-8.8,0-13.7,4.6-13.7,10.2c0,5.8,5,9,11.2,10.5c5.6,1.4,7.7,2.5,7.7,4.6c0,2.2-2.2,3.4-5.4,3.4c-4.1,0-8.4-1.8-11.2-3.8l-4,5.9
				c4,3.1,9.2,5.2,15.4,5.2c8.1,0,13.6-4.5,13.6-10.7C403.1,92,398.1,89.3,391.2,87.6z"/>
			<path class="st4" d="M424.9,73.1c-9.8,0-16.8,8-16.8,18c0,9.8,7.5,17.9,17.7,17.9c5.2,0,9.5-1.8,12.6-4.7l-4-5.8
				c-2.1,1.9-4.8,3.1-8.1,3.1c-4.8,0-8.8-2.9-9.9-7.9h25.3c0.2-1.1,0.2-2,0.2-2.9C441.8,80.6,435.7,73.1,424.9,73.1z M416.4,87.4
				c1.1-4.5,4.5-7.1,8.8-7.1c4.5,0,7.5,2.6,8.5,7.1H416.4z"/>
			<path class="st4" d="M424.9,73.1c-9.8,0-16.8,8-16.8,18c0,9.8,7.5,17.9,17.7,17.9c5.2,0,9.5-1.8,12.6-4.7l-4-5.8
				c-2.1,1.9-4.8,3.1-8.1,3.1c-4.8,0-8.8-2.9-9.9-7.9h25.3c0.2-1.1,0.2-2,0.2-2.9C441.8,80.6,435.7,73.1,424.9,73.1z M416.4,87.4
				c1.1-4.5,4.5-7.1,8.8-7.1c4.5,0,7.5,2.6,8.5,7.1H416.4z"/>
			<path class="st4" d="M424.9,73.1c-9.8,0-16.8,8-16.8,18c0,9.8,7.5,17.9,17.7,17.9c5.2,0,9.5-1.8,12.6-4.7l-4-5.8
				c-2.1,1.9-4.8,3.1-8.1,3.1c-4.8,0-8.8-2.9-9.9-7.9h25.3c0.2-1.1,0.2-2,0.2-2.9C441.8,80.6,435.7,73.1,424.9,73.1z M416.4,87.4
				c1.1-4.5,4.5-7.1,8.8-7.1c4.5,0,7.5,2.6,8.5,7.1H416.4z"/>
		</g>
		<g>
			<path class="st4" d="M92.5,87.8c0-9.3,0-18.6,0-27.9c0-2.2,0.1-4.3,0-6.5c-0.1-3.7-3.1-6.4-6.7-6.2c-0.8,0-1.7,0.3-2.5,0.6
				c-11.9,4.1-23.8,8.2-35.7,12.3c-5.9,2-9.1,6.5-9.1,12.8c0,5.5,0,10.9,0,16.4c0,5.8,0,11.7,0,17.5c0,3.1,1.8,5.5,4.6,6.3
				c1.5,0.4,3,0.3,4.5-0.2c12.1-4.2,24.1-8.3,36.2-12.5C89.3,98.3,92.5,93.9,92.5,87.8z"/>
			<path class="st4" d="M92.5,87.8c0-9.3,0-18.6,0-27.9c0-2.2,0.1-4.3,0-6.5c-0.1-3.7-3.1-6.4-6.7-6.2c-0.8,0-1.7,0.3-2.5,0.6
				c-11.9,4.1-23.8,8.2-35.7,12.3c-5.9,2-9.1,6.5-9.1,12.8c0,5.5,0,10.9,0,16.4c0,5.8,0,11.7,0,17.5c0,3.1,1.8,5.5,4.6,6.3
				c1.5,0.4,3,0.3,4.5-0.2c12.1-4.2,24.1-8.3,36.2-12.5C89.3,98.3,92.5,93.9,92.5,87.8z"/>
			<path class="st4" d="M100.4,60.9c-0.7,0-1.5,0.2-2.2,0.5c-0.8,0.3-1.5,0.5-2.3,0.8v5.5c0,6.7,0,13.4,0,20.1
				c0,7.6-4.1,13.4-11.2,15.9c-7.4,2.6-15,5.2-22.3,7.7c-0.8,0.3-1.6,0.6-2.4,0.8c0.2,2.5,1.6,4.3,3.9,5c1.3,0.4,2.6,0.2,3.8-0.2
				c10.3-3.6,20.6-7.1,30.9-10.7c4.9-1.7,7.6-5.5,7.6-10.7c0-7.9,0-15.9,0-23.8c0-1.8,0-3.7,0-5.5C106.1,63,103.5,60.7,100.4,60.9z"
				/>
		</g>
	</g>
</g>
</svg>
